<svg width="60" height="20" viewBox="0 0 60 20" fill="none" xmlns="http://www.w3.org/2000/svg">
  <rect width="60" height="20" rx="2" fill="#4D4D4D"/>
  <path d="M30 20C41.0457 20 50 15.5228 50 10C50 4.47715 41.0457 0 30 0C18.9543 0 10 4.47715 10 10C10 15.5228 18.9543 20 30 20Z" fill="#F27712"/>
  <path d="M17 12.5V7.5H19C20.5 7.5 21.5 8.5 21.5 10C21.5 11.5 20.5 12.5 19 12.5H17Z" fill="white"/>
  <path d="M23 12.5V7.5H25L28 12.5H26L23 7.5V12.5Z" fill="white"/>
  <path d="M30 12.5C28.5 12.5 27.5 11.5 27.5 10C27.5 8.5 28.5 7.5 30 7.5C31.5 7.5 32.5 8.5 32.5 10C32.5 11.5 31.5 12.5 30 12.5Z" fill="white"/>
  <path d="M38 8.5C38 7.9 37.6 7.5 37 7.5H34V12.5H35V10.5H37C37.6 10.5 38 10.1 38 9.5V8.5Z" fill="white"/>
</svg> 