<svg width="60" height="20" viewBox="0 0 60 20" fill="none" xmlns="http://www.w3.org/2000/svg">
  <path d="M25.0424 19.3929H18.5876L22.4608 0.714348H28.9157L25.0424 19.3929Z" fill="white"/>
  <path d="M42.9187 1.16934C41.7387 0.714348 39.9474 0.214355 37.7536 0.214355C32.7799 0.214355 29.2374 2.83186 29.2174 6.59937C29.1774 9.39689 31.7749 10.9744 33.7049 11.9294C35.6749 12.9044 36.3161 13.5544 36.3161 14.4294C36.2961 15.7994 34.6861 16.4294 33.1761 16.4294C31.0624 16.4294 29.9387 16.0494 28.2986 15.3044L27.6174 14.9844L26.9161 20.1994C28.2986 20.8096 30.8761 21.3496 33.5361 21.3694C38.8499 21.3694 42.3124 18.7919 42.3523 14.7494C42.3723 12.5344 41.0598 10.8344 38.1274 9.39689C36.3961 8.44189 35.3773 7.80939 35.3973 6.87439C35.3973 6.03438 36.3761 5.19437 38.4273 5.19437C40.1274 5.15437 41.3986 5.63437 42.3923 6.1144L42.8923 6.37939L43.5936 1.39934L42.9187 1.16934Z" fill="white"/>
  <path d="M49.9934 12.6394C50.4534 11.4394 51.9734 7.29436 51.9734 7.29436C51.9534 7.33436 52.4134 6.05935 52.6734 5.23934L53.0534 7.13936C53.0534 7.13936 53.9134 11.5994 54.1334 12.6394C53.3934 12.6394 51.0934 12.6394 49.9934 12.6394ZM57.0135 0.714348H52.0135C50.7735 0.714348 49.8334 1.04935 49.2734 2.26935L41.1333 19.3929H47.0134C47.0134 19.3929 47.7935 17.2178 47.9935 16.6978C48.5735 16.6978 53.6735 16.6978 54.4334 16.6978C54.5934 17.3778 54.9935 19.3929 54.9935 19.3929H60.0135L57.0135 0.714348Z" fill="white"/>
  <path d="M16.4474 0.714348L10.9676 13.3995L10.3276 10.4994C9.28761 7.33446 6.2276 3.92944 2.86761 2.22944L7.89763 19.3729H13.8176L22.3676 0.714348H16.4474Z" fill="white"/>
  <path d="M7.55764 0.714348H0.357676L0.217676 1.09435C5.8977 2.42935 9.67771 5.95936 11.2077 10.4994L9.6677 2.29935C9.3877 1.08935 8.5677 0.754348 7.55764 0.714348Z" fill="#FAA61A"/>
</svg> 